<svg xmlns="http://www.w3.org/2000/svg" width="26" height="26" viewBox="0 0 26 26">
    <g fill="none" fill-rule="evenodd" stroke="#BC0100" stroke-linecap="round" stroke-linejoin="round" transform="translate(1 1)">
        <circle cx="12.005" cy="12.007" r="6.208" transform="rotate(-21.52 12.005 12.007)"/>
        <path d="M23.58 8.626l-.803-2.04a.79.79 0 0 0-.868-.49l-1.615.278a.794.794 0 0 1-.757-.296 9.522 9.522 0 0 0-1.339-1.384.794.794 0 0 1-.267-.77l.327-1.616a.79.79 0 0 0-.461-.886L15.785.558a.79.79 0 0 0-.96.268l-.923 1.339a.794.794 0 0 1-.748.327 9.522 9.522 0 0 0-1.93-.032.794.794 0 0 1-.733-.355L9.59.72a.79.79 0 0 0-.965-.282l-2.04.804a.79.79 0 0 0-.49.867l.278 1.611a.794.794 0 0 1-.296.757c-.505.4-.97.85-1.384 1.343a.794.794 0 0 1-.77.268L2.307 5.76a.79.79 0 0 0-.886.462L.558 8.229a.79.79 0 0 0 .268.96l1.334.923c.239.17.365.457.328.748a9.522 9.522 0 0 0-.033 1.934.794.794 0 0 1-.355.734l-1.385.895a.79.79 0 0 0-.3.95l.803 2.04a.79.79 0 0 0 .868.49l1.606-.277a.794.794 0 0 1 .757.296c.401.506.853.97 1.348 1.384a.794.794 0 0 1 .268.77l-.305 1.616a.79.79 0 0 0 .462.886l2.012.873a.79.79 0 0 0 .96-.268l.923-1.334a.794.794 0 0 1 .743-.327c.642.076 1.29.087 1.934.032a.794.794 0 0 1 .734.355l.895 1.385a.79.79 0 0 0 .95.3l2.04-.803a.79.79 0 0 0 .49-.868l-.258-1.615a.794.794 0 0 1 .295-.757c.506-.4.97-.85 1.385-1.343a.794.794 0 0 1 .77-.268l1.602.332a.79.79 0 0 0 .886-.461l.872-2.013a.79.79 0 0 0-.267-.96l-1.339-.923a.794.794 0 0 1-.327-.743c.076-.64.086-1.286.032-1.929a.794.794 0 0 1 .355-.734l1.385-.9a.79.79 0 0 0 .286-.983z"/>
    </g>
</svg>
